<svg xmlns="http://www.w3.org/2000/svg" viewBox="0 0 64 64"><rect x="3" y="3" width="58" height="58" rx="13" fill="#4bb5ff"/><path d="M9 8h23c12 0 23 10 23 23v25H9V8z" fill="#eef7ff"/><path d="M32 8v48" stroke="#a7cfee" stroke-width="2"/><path d="M12 29c5-4 11-4 16 0-2 3-5 4-8 4-3 0-6-1-8-4Zm24 0c5-4 11-4 16 0-2 3-5 4-8 4-3 0-6-1-8-4Z" fill="#0a5da8"/><circle cx="23" cy="29" r="2" fill="#081e38"/><circle cx="41" cy="29" r="2" fill="#081e38"/><path d="M25 41c4 3 10 3 14 0" fill="none" stroke="#0a5da8" stroke-width="3" stroke-linecap="round"/></svg>